<svg xmlns="http://www.w3.org/2000/svg" xmlns:xlink="http://www.w3.org/1999/xlink" width="8" height="14" viewBox="0 0 8 14"><defs><clipPath id="a"><path d="M7,2.414l5.293,5.293a1,1,0,1,0,1.414-1.414l-6-6a1,1,0,0,0-1.414,0l-6,6A1,1,0,0,0,1.707,7.707Z" transform="translate(5 8)"/></clipPath></defs><g transform="translate(-8 19) rotate(-90)"><path d="M7,2.414l5.293,5.293a1,1,0,1,0,1.414-1.414l-6-6a1,1,0,0,0-1.414,0l-6,6A1,1,0,0,0,1.707,7.707Z" transform="translate(5 8)"/><g clip-path="url(#a)"><rect width="24" height="24" fill="rgba(0,0,0,0)"/><rect width="24" height="24" fill="#6ba439"/></g></g></svg>