<svg xmlns="http://www.w3.org/2000/svg" width="139" height="47" viewBox="0 0 139 47">
    <path fill="#202020" fill-rule="evenodd" d="M65.83 12.011V47h-7.155V12.011h7.155zm16.7-.436c2.972 0 5.26 1.017 6.906 3.143v-2.773h7.227v24.822h-6.999v-2.773c-2.15 2.126-4.345 2.913-7.272 2.913-2.973 0-5.535-.971-7.685-2.913-2.835-2.542-4.3-5.87-4.3-9.754 0-3.559 1.373-6.749 3.934-9.245 2.287-2.265 5.078-3.42 8.188-3.42zm-72.115-.612c4.727 0 9.37 3.44 9.37 3.44l-2.42 5.126s-3.836-2.487-7.036-2.487c-2.024 0-2.78.695-2.78 1.669 0 1.413 2.222 1.986 4.903 2.83 5.433 1.706 7.852 4.243 7.848 7.354-.007 4.823-3.671 7.99-10.245 7.99-3.811 0-7.692-1.782-10.055-3.477l2.774-5.44c2.42 1.784 5.935 2.798 7.989 2.798 1.644 0 2.647-.438 2.647-1.506 0-1.585-5.34-2.507-8.024-3.97C2.54 23.875.847 21.682.847 18.613c0-3.752 3.593-7.65 9.568-7.65zm28.677.82c.48 0 1.105.048 1.873.145v6.794a12.209 12.209 0 0 0-2.401-.243c-4.082 0-6.483 2.024-6.483 6.053v11.937h-7.155V12.011h7.155v3.653c2.598-3.295 5.59-3.881 7.011-3.881zm77.65-.306c5.907 0 9.27 3.785 9.27 10.143v14.85h-7.157V22.492c0-2.863-1.584-4.61-4.417-4.61-2.737 0-4.754 1.99-4.754 4.853V36.47h-7.155V12.011h7.155v3.058c1.582-2.045 4.058-3.592 7.059-3.592zm21.01 17.968c1.584 1.601 1.584 4.221 0 5.823-1.537 1.601-4.13 1.601-5.715 0-1.584-1.602-1.584-4.222 0-5.823 1.584-1.6 4.178-1.6 5.715 0zm-84.97-17.434V36.47h-7.155V12.01h7.155zm30.936 6.036c-3.43 0-6.083 2.819-6.083 6.147 0 3.467 2.653 6.102 6.358 6.102 3.11 0 5.717-2.59 5.717-6.01 0-3.558-2.607-6.24-5.992-6.24zm51.2-3.406c2.305 0 4.082 1.843 4.082 4.124 0 2.281-1.777 4.125-4.081 4.125-2.258 0-4.035-1.844-4.035-4.125 0-2.281 1.777-4.124 4.035-4.124zM65.135 1.2c1.584 1.552 1.584 4.174 0 5.775a4.057 4.057 0 0 1-5.762 0c-1.585-1.601-1.585-4.223 0-5.775a4.057 4.057 0 0 1 5.762 0zm-13.049 0c1.585 1.552 1.585 4.174 0 5.775a4.057 4.057 0 0 1-5.762 0c-1.584-1.601-1.584-4.223 0-5.775a4.057 4.057 0 0 1 5.762 0z"/>
</svg>
