<?xml version="1.0" encoding="UTF-8"?>
<svg width="31px" height="31px" viewBox="0 0 31 31" version="1.1" xmlns="http://www.w3.org/2000/svg" xmlns:xlink="http://www.w3.org/1999/xlink">
    <!-- Generator: Sketch 57.1 (83088) - https://sketch.com -->
    <title>Twitter_Social_Icon_Circle_Color</title>
    <desc>Created with Sketch.</desc>
    <g id="Page-1" stroke="none" stroke-width="1" fill="none" fill-rule="evenodd">
        <g id="Twitter_Social_Icon_Circle_Color" fill-rule="nonzero">
            <g id="Dark_Blue" fill="#1DA1F2">
                <circle id="Oval" cx="15.5" cy="15.5" r="15.5"></circle>
            </g>
            <g id="Logo__x2014__FIXED" transform="translate(7.000000, 9.000000)" fill="#FFFFFF">
                <path d="M5.67457627,14.9609375 C12.4398305,14.9609375 16.1389831,9.21875 16.1389831,4.2421875 C16.1389831,4.078125 16.1389831,3.9140625 16.1313559,3.7578125 C16.8483051,3.2265625 17.4737288,2.5625 17.9694915,1.8046875 C17.3135593,2.1015625 16.6042373,2.3046875 15.8567797,2.3984375 C16.6194915,1.9296875 17.1991525,1.1953125 17.4737288,0.3125 C16.7644068,0.7421875 15.9788136,1.0546875 15.1398305,1.2265625 C14.4686441,0.4921875 13.5152542,0.0390625 12.4550847,0.0390625 C10.4262712,0.0390625 8.77881356,1.7265625 8.77881356,3.8046875 C8.77881356,4.1015625 8.80932203,4.390625 8.8779661,4.6640625 C5.81949153,4.5078125 3.11186441,3.0078125 1.29661017,0.7265625 C0.983898305,1.28125 0.800847458,1.9296875 0.800847458,2.6171875 C0.800847458,3.921875 1.44915254,5.078125 2.44067797,5.75 C1.83813559,5.734375 1.27372881,5.5625 0.777966102,5.28125 C0.777966102,5.296875 0.777966102,5.3125 0.777966102,5.328125 C0.777966102,7.15625 2.0440678,8.671875 3.72966102,9.0234375 C3.42457627,9.109375 3.09661017,9.15625 2.76101695,9.15625 C2.52457627,9.15625 2.29576271,9.1328125 2.06694915,9.0859375 C2.53220339,10.5859375 3.88983051,11.671875 5.49915254,11.703125 C4.24067797,12.7109375 2.65423729,13.3125 0.930508475,13.3125 C0.633050847,13.3125 0.343220339,13.296875 0.0533898305,13.2578125 C1.66271186,14.3359375 3.6,14.9609375 5.67457627,14.9609375" id="Path"></path>
            </g>
        </g>
    </g>
</svg>